<?xml version="1.0" standalone="no"?>
<!DOCTYPE svg PUBLIC "-//W3C//DTD SVG 20010904//EN"
 "http://www.w3.org/TR/2001/REC-SVG-20010904/DTD/svg10.dtd">
<svg version="1.0" xmlns="http://www.w3.org/2000/svg"
 width="700.000000pt" height="700.000000pt" viewBox="0 0 700.000000 700.000000"
 preserveAspectRatio="xMidYMid meet">
<metadata>
Created by potrace 1.14, written by Peter Selinger 2001-2017
</metadata>
<g transform="translate(0.000000,700.000000) scale(0.100000,-0.100000)"
fill="#000000" stroke="none">
<path d="M2021 4406 c-53 -29 -66 -98 -27 -143 l24 -28 219 -5 218 -5 0 -145
0 -145 -322 -3 -322 -2 -15 53 c-19 65 -63 128 -113 161 -57 38 -153 59 -226
51 -160 -19 -249 -90 -287 -227 l-17 -62 -74 -12 c-41 -6 -93 -21 -116 -32
-108 -56 -216 -272 -294 -587 -71 -288 -100 -554 -99 -900 1 -287 10 -413 34
-449 27 -42 72 -47 397 -44 l301 3 24 28 c35 41 33 99 -5 138 l-29 29 -260 0
-260 0 -7 148 c-14 272 19 663 81 942 49 218 139 455 192 504 60 53 245 57
2717 56 l2240 0 87 -87 88 -88 0 -680 0 -680 -244 -107 -245 -108 -190 0
c-104 0 -201 -4 -214 -9 -44 -17 -67 -51 -67 -97 0 -35 5 -47 31 -68 l31 -26
223 0 223 0 303 135 c167 74 313 144 324 155 20 20 20 33 23 778 2 516 -1 765
-8 783 -6 14 -71 86 -146 160 l-134 134 -258 5 -257 5 0 145 0 145 217 3 217
2 25 31 c43 51 32 115 -24 144 -26 13 -260 15 -1992 15 -1610 -1 -1967 -3
-1987 -14z m1017 -323 l-3 -148 -192 -3 -193 -2 0 150 0 150 195 0 196 0 -3
-147z m582 -3 l0 -150 -192 2 -193 3 -3 134 c-1 74 0 141 2 148 4 10 49 13
196 13 l190 0 0 -150z m585 0 l0 -145 -195 0 -195 0 -3 134 c-1 74 0 141 2
148 4 11 46 13 198 11 l193 -3 0 -145z m583 3 l-3 -148 -192 -3 -193 -2 0 150
0 150 195 0 196 0 -3 -147z m582 -3 l0 -150 -192 2 -193 3 -3 134 c-1 74 0
141 2 148 4 10 49 13 196 13 l190 0 0 -150z m-3787 -112 l32 -33 -65 -6 c-119
-12 -190 -10 -190 4 0 15 37 51 60 60 8 3 41 6 73 6 53 1 61 -2 90 -31z"/>
<path d="M3545 3614 c-16 -8 -41 -25 -54 -37 -51 -48 -51 -41 -51 -703 0 -687
-2 -662 69 -706 36 -23 40 -23 386 -23 322 0 352 1 380 18 44 27 67 63 73 113
l5 44 362 0 362 0 6 -42 c7 -49 32 -86 78 -113 32 -19 52 -20 379 -20 383 0
384 0 432 67 l23 33 0 631 0 631 -29 41 c-16 23 -46 50 -70 62 -42 20 -56 20
-1182 20 -1012 0 -1142 -2 -1169 -16z m2265 -729 l0 -555 -270 0 -270 0 0 50
c0 62 -20 103 -57 119 -21 8 -160 11 -511 9 l-482 -3 -26 -26 c-20 -21 -27
-39 -31 -88 l-6 -61 -263 0 -264 0 0 555 0 555 1090 0 1090 0 0 -555z"/>
<path d="M1237 3576 c-86 -31 -162 -104 -186 -179 -9 -29 -33 -210 -48 -357
-5 -51 -3 -57 25 -84 23 -21 40 -28 69 -28 70 2 469 70 500 86 35 18 81 68 95
105 15 39 28 377 16 411 -19 55 -38 60 -245 60 -132 -1 -199 -5 -226 -14z"/>
<path d="M2289 3525 c-45 -24 -48 -47 -49 -327 l-1 -263 31 -27 30 -28 394 0
c392 0 393 0 437 23 29 16 54 40 74 72 l30 48 3 201 c4 219 -2 262 -45 295
-25 20 -37 21 -452 21 -344 -1 -431 -3 -452 -15z"/>
<path d="M1105 2574 c-41 -20 -56 -47 -62 -114 -5 -56 -6 -58 -43 -69 -20 -6
-44 -11 -53 -11 -80 0 -128 -110 -73 -165 33 -33 67 -40 131 -27 82 17 148 49
191 93 l39 40 3 98 c4 97 3 99 -25 129 -35 37 -69 46 -108 26z"/>
<path d="M1770 2199 c-112 -22 -224 -110 -276 -215 -52 -106 -43 -260 22 -371
34 -57 105 -120 172 -151 50 -24 70 -27 157 -27 91 0 106 3 165 31 157 75 238
225 219 409 -16 154 -145 290 -307 324 -60 12 -88 13 -152 0z m185 -227 c157
-108 77 -352 -116 -352 -49 0 -127 49 -156 97 -103 176 105 371 272 255z"/>
<path d="M4610 2199 c-112 -22 -224 -107 -273 -209 -95 -197 -9 -435 191 -528
50 -24 69 -27 157 -27 91 0 106 3 165 31 151 72 247 245 225 406 -16 114 -106
238 -212 291 -83 42 -163 54 -253 36z m185 -227 c48 -33 85 -101 85 -157 0
-92 -78 -179 -172 -191 -69 -10 -148 30 -184 93 -104 176 104 371 271 255z"/>
<path d="M2361 2066 c-37 -20 -50 -55 -51 -129 0 -79 19 -129 56 -146 18 -8
262 -11 880 -11 l856 0 29 29 c52 53 33 135 -38 162 -14 5 -342 9 -803 9
l-778 0 -6 26 c-16 63 -87 92 -145 60z"/>
</g>
</svg>
